<mxfile host="app.diagrams.net" modified="2022-07-28T02:08:29.781Z" agent="5.0 (Macintosh; Intel Mac OS X 10_15_7) AppleWebKit/537.36 (KHTML, like Gecko) Chrome/103.0.0.0 Safari/537.36" etag="6UVWeO8nqsu_jAt4Jw_h" version="19.0.3" type="github">
  <diagram id="me2hgxYZskSEQqcRje0y" name="Page-1">
    <mxGraphModel dx="1620" dy="1022" grid="1" gridSize="10" guides="1" tooltips="1" connect="1" arrows="1" fold="1" page="1" pageScale="1" pageWidth="827" pageHeight="1169" math="0" shadow="0">
      <root>
        <mxCell id="0" />
        <mxCell id="1" parent="0" />
        <mxCell id="KYdz_cvS0K315jwVS6KN-1" value="" style="rounded=1;whiteSpace=wrap;html=1;arcSize=5;strokeWidth=2;" vertex="1" parent="1">
          <mxGeometry x="180" y="290" width="240" height="280" as="geometry" />
        </mxCell>
      </root>
    </mxGraphModel>
  </diagram>
</mxfile>
